<svg width="256" height="256" viewBox="0 0 256 256" fill="none" xmlns="http://www.w3.org/2000/svg">
<g clip-path="url(#clip0_411_216)">
<rect width="256" height="256" fill="white"/>
<path d="M-193.814 199.772H-155.381L-154.104 217.518H-158.956L-163.808 200.046L-158.828 203.065H-193.814V199.772Z" fill="#00718A"/>
<path d="M-211.462 199.858H-195.85V204.464H-196.844L-211.462 203.263V199.858ZM-211.462 277.458L-196.844 276.257H-195.85V280.862H-211.462V277.458ZM-199.131 243.615V237.106C-199.131 224.69 -199.131 212.174 -199.43 199.858H-192.369C-192.667 212.074 -192.667 224.59 -192.667 237.807V243.615C-192.667 256.031 -192.667 268.547 -192.369 280.862H-199.43C-199.131 268.647 -199.131 256.131 -199.131 243.615ZM-195.85 277.058H-180.535C-164.922 277.058 -157.663 270.649 -157.663 258.033C-157.663 246.518 -163.829 239.309 -181.43 239.309C-186.601 239.309 -191.176 239.509 -195.949 240.611V236.706C-190.281 235.804 -184.811 235.404 -179.64 235.404C-160.447 235.404 -151 244.716 -151 257.933C-151 271.15 -160.149 280.862 -179.64 280.862H-195.85V277.058Z" fill="#00718A"/>
<path d="M-130.316 250.023C-130.316 242.313 -130.415 235.804 -130.714 230.297L-141.155 229.897V226.793L-126.636 222.988L-125.244 223.889L-124.747 233.702L-124.548 234.202V284.667C-124.647 292.477 -124.548 303.391 -124.349 310H-130.813C-130.614 303.391 -130.415 292.578 -130.415 284.768V250.123L-130.316 250.023ZM-112.714 306.796V309.9H-140.956V306.796L-128.426 305.394H-126.835L-112.814 306.796H-112.714ZM-107.145 226.993C-113.112 226.993 -119.277 229.697 -126.537 237.907L-127.531 236.005C-121.067 226.292 -113.012 222.487 -105.554 222.487C-92.0297 222.487 -82.5825 234.202 -82.5825 251.725C-82.5825 270.349 -92.3281 282.164 -106.648 282.164C-113.609 282.164 -121.266 279.561 -127.531 269.548L-126.338 267.846C-119.874 275.155 -114.305 277.758 -107.543 277.758C-97.5986 277.758 -88.947 270.149 -88.947 252.226C-88.947 235.704 -96.5047 226.993 -106.946 226.993H-107.145Z" fill="#00718A"/>
<path d="M-71.4448 224.189H-45.8876V227.293L-57.7214 228.695H-59.412L-71.4448 227.293V224.189ZM-71.4448 277.658L-59.5114 276.257H-57.8209L-45.987 277.658V280.762H-71.5442V277.658H-71.4448ZM-61.5998 255.53V249.322C-61.5998 241.812 -61.6992 229.496 -61.9975 224.089H-56.0309V280.762H-61.9975C-61.7987 275.355 -61.5998 263.04 -61.5998 255.53ZM-20.2309 229.897L-16.6509 230.798L-57.5225 274.955L-61.202 274.154L-20.2309 229.897ZM-31.4681 224.189H-5.81148V227.293L-17.6454 228.695H-19.3359L-31.4681 227.293V224.189ZM-31.4681 277.658L-19.4354 276.257H-17.7448L-5.81148 277.658V280.762H-31.4681V277.658ZM-21.2254 224.189H-15.3582C-15.557 229.596 -15.7559 241.812 -15.7559 249.422V255.63C-15.7559 263.14 -15.6565 275.456 -15.3582 280.862H-21.2254V224.189Z" fill="#00718A"/>
<path d="M4.9285 224.189H17.6574V228.695H16.9613L4.9285 227.293V224.189ZM4.9285 277.658L16.7624 276.257H18.4529L31.679 277.658V280.762H4.9285V277.658ZM14.7735 255.53V249.923C14.7735 241.712 14.674 229.496 14.3757 224.089H20.939C20.7402 229.496 20.5413 241.712 20.5413 249.923V255.53C20.5413 263.04 20.6407 275.355 20.939 280.762H14.3757C14.5746 275.355 14.7735 263.04 14.7735 255.53ZM17.6574 224.089H47.5901L48.5846 243.514H44.8057L41.0268 224.39L44.9051 227.694H17.6574V224.189V224.089Z" fill="#00718A"/>
<path d="M77.0257 249.923C82.9923 247.92 90.0529 246.218 96.119 244.916V247.92C90.3512 249.222 83.1912 251.224 78.1195 253.127C67.9762 256.932 64.794 261.638 64.794 266.744C64.794 273.653 69.269 277.258 75.8323 277.258C81.6001 277.258 85.9757 274.454 93.434 267.345L95.224 265.743L95.9201 268.547L93.8318 270.649C86.5723 278.459 81.6001 282.264 73.744 282.264C65.1918 282.264 58.529 277.258 58.529 267.846C58.529 259.936 63.6007 254.529 77.0257 249.823V249.923ZM93.1356 269.248V242.113C93.1356 229.396 88.8595 226.292 80.009 226.292C75.534 226.292 71.2579 227.394 66.6834 230.598L70.4623 227.193L67.9762 236.205C67.2801 238.708 65.9874 240.01 63.7996 240.01C61.6118 240.01 60.319 238.808 60.0207 236.706C62.4073 227.694 70.3629 222.688 81.2023 222.688C93.0362 222.688 99.0028 228.095 99.0028 241.412V267.946C99.0028 275.756 100.992 278.159 104.373 278.159C106.163 278.159 107.456 277.458 109.345 275.856L111.036 277.959C108.748 280.963 105.865 282.364 102.583 282.364C96.5168 282.364 93.5334 277.558 93.2351 269.448L93.1356 269.248Z" fill="#00718A"/>
<path d="M117.5 224.189H143.057V227.293L131.223 228.695H129.532L117.5 227.293V224.189ZM117.5 277.658L129.532 276.257H131.223L143.057 277.658V280.762H117.5V277.658ZM127.345 255.53V249.322C127.345 241.812 127.245 229.496 126.947 224.089H133.51C133.311 229.496 133.112 241.712 133.112 249.923V252.226C133.112 263.04 133.212 275.355 133.51 280.762H126.947C127.146 275.355 127.345 263.04 127.345 255.53ZM130.228 249.322H168.912V252.826H130.228V249.322ZM156.183 224.189H181.741V227.293L169.907 228.695H168.216L156.183 227.293V224.189ZM156.183 277.658L168.216 276.257H169.907L181.741 277.658V280.762H156.183V277.658ZM166.028 252.326V250.023C166.028 241.812 165.929 229.596 165.631 224.189H172.194C171.995 229.596 171.796 241.812 171.796 249.422V255.63C171.796 263.14 171.896 275.456 172.194 280.862H165.631C165.829 275.456 166.028 263.14 166.028 252.326Z" fill="#00718A"/>
<path d="M190.691 224.189H244.291L245.286 242.413H241.507L238.225 224.49L241.606 227.794H193.376L196.757 224.49L193.475 242.413H189.696L190.691 224.189ZM203.519 277.658L216.646 276.257H218.336L231.463 277.658V280.762H203.519V277.658ZM214.557 255.53V249.322C214.557 241.812 214.458 229.496 214.159 224.089H220.723C220.524 229.496 220.325 241.712 220.325 249.322V255.53C220.325 263.04 220.424 275.355 220.723 280.762H214.159C214.358 275.355 214.557 263.04 214.557 255.53Z" fill="#00718A"/>
<path d="M254.534 224.189H280.091V227.293L268.257 228.695H266.567L254.534 227.293V224.189ZM254.534 277.658L266.467 276.257H268.158L280.091 277.658V280.762H254.534V277.658ZM264.379 255.53V249.322C264.379 241.812 264.279 229.496 263.981 224.089H269.948V280.762H263.981C264.18 275.355 264.379 263.04 264.379 255.53ZM305.748 229.897L309.328 230.798L268.456 274.955L264.777 274.154L305.748 229.897ZM294.51 224.189H320.167V227.293L308.333 228.695H306.643L294.51 227.293V224.189ZM294.51 277.658L306.543 276.257H308.234L320.167 277.658V280.762H294.51V277.658ZM304.753 224.189H310.62C310.422 229.596 310.223 241.812 310.223 249.422V255.63C310.223 263.14 310.322 275.456 310.62 280.862H304.753V224.189Z" fill="#00718A"/>
<path d="M330.907 224.189H356.464V227.293L344.63 228.695H342.94L330.907 227.293V224.189ZM330.907 277.658L342.94 276.257H344.63L356.464 277.658V280.762H330.907V277.658ZM340.752 255.53V249.322C340.752 241.812 340.653 229.496 340.354 224.089H346.918C346.719 229.496 346.52 241.712 346.52 249.923V252.226C346.52 263.04 346.619 275.355 346.918 280.762H340.354C340.553 275.355 340.752 263.04 340.752 255.53ZM343.636 249.322H382.32V252.826H343.636V249.322ZM369.491 224.189H395.049V227.293L383.314 228.695H381.624L369.591 227.293V224.189H369.491ZM369.491 277.658L381.524 276.257H383.215L394.949 277.658V280.762H369.392V277.658H369.491ZM379.336 252.326V250.023C379.336 241.812 379.237 229.596 378.939 224.189H385.502C385.303 229.596 385.104 241.812 385.104 249.422V255.63C385.104 263.14 385.204 275.456 385.502 280.862H378.939C379.138 275.456 379.336 263.14 379.336 252.326Z" fill="#00718A"/>
<path d="M425.28 249.923C431.246 247.92 438.307 246.218 444.373 244.916V247.92C438.605 249.222 431.445 251.224 426.374 253.127C416.33 256.932 413.048 261.638 413.048 266.744C413.048 273.653 417.523 277.258 424.086 277.258C429.854 277.258 434.13 274.454 441.688 267.345L443.478 265.743L444.174 268.547L442.086 270.649C434.826 278.459 429.854 282.264 421.998 282.264C413.446 282.264 406.783 277.258 406.783 267.846C406.783 259.936 411.855 254.529 425.28 249.823V249.923ZM441.39 269.248V242.113C441.39 229.396 437.114 226.292 428.263 226.292C423.788 226.292 419.512 227.394 414.938 230.598L418.716 227.193L416.23 236.205C415.534 238.708 414.241 240.01 412.054 240.01C409.866 240.01 408.573 238.808 408.275 236.706C410.662 227.694 418.617 222.688 429.456 222.688C441.29 222.688 447.257 228.095 447.257 241.412V267.946C447.257 275.756 449.246 278.159 452.627 278.159C454.417 278.159 455.71 277.458 457.599 275.856L459.29 277.959C457.002 280.963 454.119 282.364 450.837 282.364C444.771 282.364 441.788 277.558 441.489 269.448L441.39 269.248Z" fill="#00718A"/>
<path fill-rule="evenodd" clip-rule="evenodd" d="M-211.186 199.858H-211.462V203.263L-199.335 204.259C-199.335 204.271 -199.335 204.283 -199.335 204.295C-199.334 204.351 -199.333 204.408 -199.332 204.464C-199.306 205.856 -199.283 207.249 -199.264 208.645C-199.263 208.669 -199.263 208.693 -199.263 208.717C-199.152 216.691 -199.134 224.719 -199.132 232.72C-199.131 234.049 -199.131 235.378 -199.131 236.706C-199.131 236.839 -199.131 236.973 -199.131 237.106V243.615C-199.131 244.375 -199.131 245.136 -199.131 245.897C-199.132 254.642 -199.142 263.379 -199.262 272.004C-199.265 272.21 -199.268 272.415 -199.271 272.621C-199.289 273.835 -199.308 275.047 -199.331 276.257C-199.332 276.313 -199.333 276.369 -199.334 276.426C-199.334 276.438 -199.335 276.449 -199.335 276.461L-211.462 277.458V280.862H-179.64C-173.172 280.862 -167.843 279.793 -163.609 277.88C-155.084 274.03 -151 266.764 -151 257.933C-151 248.375 -155.941 240.859 -165.935 237.43C-169.761 236.118 -174.327 235.404 -179.64 235.404C-180.233 235.404 -180.83 235.409 -181.43 235.42C-183.656 235.459 -185.933 235.573 -188.255 235.769C-189.709 235.892 -191.181 236.047 -192.667 236.236C-192.667 235.991 -192.667 235.746 -192.667 235.501C-192.667 234.25 -192.667 233.005 -192.666 231.766C-192.662 223.942 -192.641 216.349 -192.539 208.901C-192.538 208.815 -192.537 208.73 -192.536 208.645C-192.516 207.246 -192.494 205.853 -192.468 204.464C-192.467 204.408 -192.466 204.351 -192.465 204.295C-192.464 204.266 -192.464 204.237 -192.463 204.208H-192.369M-188.05 204.208H-191.437ZM-198.226 199.829V199.858H-211.186M-192.452 277.058H-180.535C-180.234 277.058 -179.935 277.055 -179.64 277.05C-173.735 276.955 -169.073 275.904 -165.591 273.91C-160.229 270.84 -157.663 265.534 -157.663 258.033C-157.663 250.337 -160.417 244.565 -167.498 241.582C-170.645 240.257 -174.646 239.482 -179.64 239.335C-180.223 239.318 -180.82 239.309 -181.43 239.309C-183.805 239.309 -186.055 239.351 -188.255 239.504C-189.358 239.58 -190.449 239.684 -191.537 239.824C-191.914 239.873 -192.291 239.926 -192.667 239.984V243.615C-192.667 243.902 -192.667 244.189 -192.667 244.477C-192.667 253.58 -192.663 262.734 -192.538 271.82C-192.535 272.087 -192.531 272.354 -192.527 272.621C-192.509 273.834 -192.49 275.046 -192.467 276.257C-192.466 276.313 -192.465 276.369 -192.464 276.426C-192.46 276.637 -192.456 276.847 -192.452 277.058ZM-196.78 199.772H-198.226V199.829M-130.415 250.123L-130.316 250.023C-130.316 246.455 -130.337 243.145 -130.39 240.073C-130.39 240.03 -130.391 239.987 -130.392 239.944C-130.406 239.127 -130.422 238.327 -130.441 237.543C-130.471 236.313 -130.506 235.124 -130.548 233.975C-130.565 233.531 -130.582 233.092 -130.6 232.66C-130.634 231.853 -130.672 231.065 -130.714 230.297L-141.155 229.897V226.793L-126.636 222.988L-125.244 223.889L-124.814 232.368C-123.458 230.756 -122.05 229.364 -120.609 228.176C-116.323 224.642 -111.738 222.912 -107.301 222.557C-106.716 222.51 -106.133 222.487 -105.554 222.487C-92.0297 222.487 -82.5825 234.202 -82.5825 251.725C-82.5825 270.194 -92.1665 281.967 -106.291 282.162C-106.41 282.163 -106.529 282.164 -106.648 282.164C-106.945 282.164 -107.244 282.159 -107.543 282.15C-111.672 282.014 -116.012 280.905 -120.136 277.844C-121.642 276.726 -123.12 275.348 -124.548 273.661V284.667C-124.61 289.557 -124.595 295.662 -124.525 301.167C-124.507 302.655 -124.484 304.099 -124.458 305.463C-124.457 305.497 -124.457 305.53 -124.456 305.563C-124.456 305.586 -124.455 305.609 -124.455 305.632L-112.814 306.796H-112.714V309.9H-124.349V310H-130.813L-130.81 309.9H-140.956V306.796L-130.697 305.648C-130.696 305.62 -130.695 305.592 -130.695 305.563C-130.694 305.53 -130.693 305.497 -130.692 305.463C-130.66 304.1 -130.629 302.658 -130.6 301.173C-130.493 295.705 -130.415 289.649 -130.415 284.768V250.123ZM-123.209 271.083C-122.173 272.051 -121.151 272.898 -120.136 273.635C-116.056 276.594 -112.066 277.758 -107.543 277.758C-107.243 277.758 -106.945 277.752 -106.648 277.738C-106.577 277.734 -106.507 277.731 -106.436 277.727C-96.9652 277.176 -88.947 269.48 -88.947 252.226C-88.947 235.704 -96.5047 226.993 -106.946 226.993H-107.145C-111.363 226.993 -115.681 228.344 -120.413 232.037C-120.475 232.085 -120.537 232.134 -120.599 232.183C-120.941 232.453 -121.285 232.736 -121.631 233.031C-121.838 233.207 -122.046 233.388 -122.255 233.574C-122.484 233.778 -122.714 233.987 -122.945 234.202C-123.067 234.315 -123.188 234.429 -123.31 234.545C-123.719 234.934 -124.132 235.341 -124.548 235.766V269.773C-124.098 270.232 -123.652 270.668 -123.209 271.083ZM-71.4448 224.189V227.293L-61.8319 228.413C-61.8308 228.451 -61.8298 228.488 -61.8288 228.526C-61.8279 228.559 -61.8269 228.593 -61.826 228.626C-61.7903 229.946 -61.7594 231.386 -61.733 232.891C-61.6367 238.386 -61.5998 244.746 -61.5998 249.322V255.53C-61.5998 259.088 -61.6444 263.724 -61.7125 268.194C-61.7326 269.506 -61.7546 270.804 -61.7781 272.056C-61.7878 272.575 -61.7978 273.086 -61.8081 273.587C-61.8276 274.542 -61.8479 275.46 -61.8687 276.326C-61.8703 276.396 -61.872 276.465 -61.8737 276.534L-71.4448 277.658H-71.5442V280.762H-45.987V277.658L-56.0309 276.469V273.343L-21.2254 235.74V276.465L-31.4681 277.658V280.762H-21.2254V280.862H-15.3582L-15.3636 280.762H-5.81148V277.658L-15.5244 276.517C-15.5253 276.487 -15.5261 276.456 -15.527 276.426C-15.5279 276.393 -15.5288 276.359 -15.5297 276.326C-15.5656 274.999 -15.5966 273.552 -15.623 272.039C-15.7191 266.55 -15.7559 260.2 -15.7559 255.63V249.422C-15.7559 245.68 -15.7078 240.825 -15.6353 236.213C-15.6177 235.094 -15.5987 233.989 -15.5785 232.918C-15.5716 232.548 -15.5645 232.182 -15.5573 231.821C-15.535 230.702 -15.5115 229.629 -15.4873 228.626C-15.4858 228.563 -15.4843 228.501 -15.4828 228.439L-5.81148 227.293V224.189H-31.4681V227.293L-21.2254 228.477V230.971L-56.0309 268.568V228.495L-45.8876 227.293V224.189H-56.0309V224.089H-61.9975L-61.9921 224.189H-71.4448ZM4.9285 224.189V227.293L14.5415 228.413C14.5426 228.451 14.5436 228.488 14.5446 228.526C14.5455 228.559 14.5464 228.593 14.5473 228.626C14.548 228.649 14.5486 228.672 14.5492 228.695C14.5781 229.77 14.6037 230.924 14.6263 232.131C14.631 232.382 14.6356 232.635 14.6401 232.891C14.7365 238.423 14.7735 244.917 14.7735 249.923V255.53C14.7735 260.13 14.6989 266.532 14.5953 272.046C14.567 273.558 14.5364 275.003 14.5046 276.326C14.503 276.392 14.5014 276.459 14.4998 276.525L4.9285 277.658V280.762H31.679V277.658L20.7751 276.503C20.7735 276.444 20.7719 276.385 20.7702 276.326C20.7339 274.999 20.7026 273.548 20.6758 272.031C20.5785 266.521 20.5413 260.125 20.5413 255.53V249.923C20.5413 244.99 20.6131 238.611 20.7135 233.132C20.7197 232.795 20.726 232.461 20.7324 232.131C20.7558 230.924 20.7804 229.77 20.806 228.695C20.8073 228.639 20.8087 228.582 20.81 228.526C20.8168 228.243 20.8237 227.965 20.8306 227.694H41.6797L44.8057 243.514H48.5846L47.5901 224.089H14.3757L14.3812 224.189H4.9285ZM65.4343 255.393C60.5546 258.847 58.529 262.847 58.529 267.846C58.529 277.258 65.1918 282.264 73.744 282.264C76.1148 282.264 78.2228 281.918 80.2104 281.219C83.4138 280.094 86.3042 278.053 89.4764 275.076C90.7111 273.917 91.9885 272.616 93.3436 271.172C93.4083 271.883 93.4967 272.565 93.609 273.215C93.8103 274.382 94.0887 275.449 94.446 276.409C95.8162 280.091 98.347 282.206 102.144 282.356C102.288 282.362 102.435 282.364 102.583 282.364C103.194 282.364 103.791 282.316 104.373 282.217C106.918 281.787 109.174 280.403 111.036 277.959L109.345 275.856C109.173 276.002 109.006 276.14 108.843 276.271C108.743 276.352 108.644 276.43 108.547 276.505C107.065 277.649 105.9 278.159 104.373 278.159C103.786 278.159 103.241 278.087 102.741 277.926C100.862 277.323 99.6192 275.473 99.1798 271.543C99.0629 270.497 99.0028 269.303 99.0028 267.946V241.412C99.0028 240.85 98.9922 240.302 98.971 239.768C98.6521 231.753 95.9415 226.869 90.864 224.48C88.2633 223.257 85.0416 222.688 81.2023 222.688C80.8006 222.688 80.4027 222.694 80.009 222.708C78.6834 222.754 77.4043 222.878 76.1768 223.077C73.488 223.513 71.0471 224.311 68.9092 225.45C68.3899 225.727 67.8885 226.024 67.4057 226.341C66.8412 226.711 66.3021 227.109 65.7898 227.533C65.528 227.75 65.2732 227.974 65.0256 228.205C64.9391 228.285 64.8535 228.367 64.7687 228.449C64.746 228.471 64.7234 228.493 64.7009 228.515C62.4911 230.684 60.8881 233.43 60.0207 236.706C60.319 238.808 61.6118 240.01 63.7996 240.01C65.9874 240.01 67.2801 238.708 67.9762 236.205L70.0841 228.564C70.4629 228.376 70.8403 228.202 71.2169 228.04C71.5287 227.906 71.8399 227.781 72.1505 227.664C73.1548 227.287 74.1541 226.997 75.1543 226.783C76.7621 226.44 78.3723 226.292 80.009 226.292C80.4165 226.292 80.8142 226.299 81.2023 226.313C84.3127 226.423 86.8022 226.997 88.6858 228.361C91.524 230.417 92.9867 234.267 93.1248 241.03C93.132 241.383 93.1356 241.744 93.1356 242.113V245.572C92.6628 245.679 92.1862 245.788 91.7068 245.898C90.7217 246.126 89.7247 246.363 88.7235 246.608C86.2842 247.206 83.8192 247.854 81.4378 248.547C80.0304 248.957 78.6522 249.382 77.3256 249.823C77.2357 249.852 77.1461 249.882 77.0568 249.912C77.0464 249.916 77.036 249.919 77.0257 249.923V249.823C77.0157 249.826 77.0058 249.829 76.9959 249.833C76.9668 249.843 76.9378 249.853 76.9088 249.864C76.8529 249.883 76.7972 249.903 76.7416 249.923C75.2644 250.446 73.8898 250.978 72.6135 251.522C69.7399 252.746 67.3639 254.027 65.4343 255.393ZM72.6135 255.639C70.8027 256.66 69.3627 257.728 68.2377 258.837C65.7383 261.3 64.794 263.963 64.794 266.744C64.794 273.653 69.269 277.258 75.8323 277.258C76.925 277.258 77.9679 277.157 78.9911 276.946C82.1872 276.285 85.1926 274.543 88.935 271.408C89.015 271.341 89.0954 271.274 89.1761 271.205C89.7922 270.684 90.4284 270.125 91.0889 269.528C91.1911 269.435 91.2938 269.342 91.3971 269.248C91.4376 269.211 91.4782 269.174 91.5189 269.136C91.6366 269.029 91.755 268.92 91.8742 268.81C91.896 268.79 91.9178 268.769 91.9396 268.749C92.3295 268.389 92.728 268.015 93.1356 267.629V248.626C91.6947 248.981 90.2089 249.368 88.7235 249.775C84.9572 250.809 81.1929 251.976 78.1653 253.11C78.15 253.115 78.1348 253.121 78.1195 253.127C78.1106 253.13 78.1016 253.134 78.0926 253.137C75.9733 253.933 74.1584 254.769 72.6135 255.639ZM117.5 277.658V280.762H143.057V277.658L133.347 276.508C133.345 276.448 133.344 276.387 133.342 276.326C133.307 275.017 133.276 273.572 133.25 272.029C133.175 267.627 133.135 262.422 133.12 257.263C133.116 256.089 133.114 254.918 133.113 253.758C133.113 253.447 133.112 253.136 133.112 252.826H166.028C166.028 253.136 166.028 253.447 166.027 253.758C166.025 254.917 166.021 256.089 166.016 257.263C165.99 262.43 165.927 267.649 165.848 272.066C165.821 273.594 165.792 275.025 165.761 276.326C165.76 276.359 165.759 276.393 165.759 276.426C165.758 276.465 165.757 276.504 165.756 276.543L156.183 277.658V280.762H165.631V280.862H172.194L172.188 280.762H181.741V277.658L172.027 276.508C172.027 276.481 172.026 276.453 172.025 276.426C172.024 276.393 172.023 276.359 172.022 276.326C171.986 274.996 171.955 273.545 171.929 272.029C171.844 267.169 171.805 261.637 171.798 257.263C171.797 256.698 171.796 256.152 171.796 255.63V249.422C171.796 249.389 171.796 249.355 171.796 249.322C171.796 247.965 171.803 246.465 171.815 244.885C171.843 241.062 171.901 236.771 171.974 232.918C172.002 231.401 172.033 229.952 172.065 228.626C172.066 228.563 172.068 228.501 172.069 228.439L181.741 227.293V224.189H156.183V227.293L165.794 228.413C165.796 228.484 165.798 228.555 165.799 228.626C165.836 229.941 165.867 231.379 165.893 232.891C165.96 236.693 165.999 240.958 166.016 244.885C166.022 246.093 166.025 247.269 166.027 248.39C166.028 248.705 166.028 249.016 166.028 249.322H133.113C133.113 249.016 133.114 248.705 133.114 248.39C133.117 247.27 133.124 246.094 133.132 244.885C133.161 240.974 133.218 236.72 133.288 232.918C133.317 231.398 133.347 229.951 133.379 228.626C133.379 228.593 133.38 228.559 133.381 228.526C133.382 228.497 133.382 228.468 133.383 228.439L143.057 227.293V224.189H133.51V224.089H126.947L126.952 224.189H117.5V227.293L127.112 228.413C127.113 228.451 127.114 228.488 127.116 228.526C127.116 228.559 127.117 228.593 127.118 228.626C127.154 229.946 127.185 231.386 127.211 232.891C127.279 236.768 127.318 241.077 127.334 244.885C127.341 246.474 127.345 247.975 127.345 249.322V255.53C127.345 256.083 127.343 256.662 127.341 257.263C127.326 261.663 127.257 267.211 127.166 272.066C127.138 273.571 127.107 275.009 127.076 276.326C127.074 276.399 127.072 276.471 127.07 276.543L117.5 277.658ZM189.696 242.413H193.475L196.152 227.794H214.307C214.314 228.034 214.321 228.278 214.328 228.526C214.329 228.559 214.33 228.593 214.331 228.626C214.361 229.752 214.388 230.965 214.412 232.231C214.517 237.87 214.557 244.561 214.557 249.322V255.53C214.557 260.127 214.483 266.525 214.379 272.037C214.351 273.552 214.32 275 214.288 276.326C214.287 276.387 214.285 276.448 214.284 276.509L203.519 277.658V280.762H231.463V277.658L220.559 276.494C220.557 276.438 220.556 276.382 220.554 276.326C220.518 274.996 220.486 273.543 220.459 272.022C220.362 266.513 220.325 260.123 220.325 255.53V249.322C220.325 244.505 220.405 237.843 220.514 232.231C220.538 230.965 220.564 229.752 220.591 228.626C220.592 228.593 220.593 228.559 220.594 228.526C220.6 228.278 220.606 228.034 220.612 227.794H238.83L241.507 242.413H245.286L244.291 224.189H220.723V224.089H214.159L214.165 224.189H190.691L189.696 242.413ZM254.534 224.189V227.293L264.147 228.413C264.148 228.451 264.149 228.488 264.15 228.526C264.151 228.559 264.152 228.593 264.153 228.626C264.188 229.946 264.219 231.386 264.246 232.891C264.342 238.386 264.379 244.746 264.379 249.322V255.53C264.379 259.088 264.334 263.724 264.266 268.194C264.246 269.506 264.224 270.804 264.201 272.056C264.191 272.575 264.181 273.086 264.171 273.587C264.151 274.542 264.131 275.46 264.11 276.326C264.108 276.396 264.107 276.465 264.105 276.534L254.534 277.658V280.762H280.091V277.658L269.948 276.467V273.343L304.753 235.74V276.465L294.51 277.658V280.762H304.753V280.862H310.62L310.615 280.762H320.167V277.658L310.454 276.517C310.453 276.487 310.452 276.456 310.452 276.426C310.451 276.393 310.45 276.359 310.449 276.326C310.413 274.999 310.382 273.552 310.356 272.039C310.259 266.55 310.223 260.2 310.223 255.63V249.422C310.223 245.68 310.271 240.825 310.343 236.213C310.361 235.094 310.38 233.989 310.4 232.918C310.407 232.548 310.414 232.182 310.421 231.821C310.444 230.702 310.467 229.629 310.491 228.626C310.493 228.563 310.494 228.501 310.496 228.439L320.167 227.293V224.189H294.51V227.293L304.753 228.477V230.971L269.948 268.568V228.495L280.091 227.293V224.189H269.948V224.089H263.981L263.987 224.189H254.534ZM330.907 224.189V227.293L340.52 228.413C340.521 228.451 340.522 228.488 340.523 228.526C340.524 228.559 340.525 228.593 340.526 228.626C340.562 229.946 340.592 231.386 340.619 232.891C340.687 236.768 340.725 241.077 340.742 244.885C340.749 246.474 340.752 247.975 340.752 249.322V255.53C340.752 256.083 340.751 256.662 340.749 257.263C340.734 261.663 340.665 267.211 340.574 272.066C340.545 273.571 340.515 275.009 340.483 276.326C340.481 276.399 340.48 276.471 340.478 276.543L330.907 277.658V280.762H356.464V277.658L346.755 276.508C346.753 276.448 346.751 276.387 346.75 276.326C346.714 275.017 346.684 273.572 346.658 272.029C346.583 267.627 346.542 262.422 346.527 257.263C346.524 256.089 346.522 254.918 346.521 253.758C346.52 253.447 346.52 253.136 346.52 252.826H379.336C379.336 253.136 379.336 253.447 379.335 253.758C379.334 254.917 379.33 256.089 379.324 257.263C379.298 262.43 379.235 267.649 379.156 272.066C379.129 273.594 379.1 275.025 379.069 276.326C379.068 276.359 379.068 276.393 379.067 276.426C379.066 276.465 379.065 276.504 379.064 276.543L369.491 277.658H369.392V280.762H378.939V280.862H385.502L385.497 280.762H394.949V277.658L385.336 276.51C385.335 276.482 385.334 276.454 385.333 276.426C385.332 276.393 385.331 276.359 385.33 276.326C385.294 274.996 385.263 273.546 385.237 272.03C385.152 267.17 385.113 261.638 385.106 257.263C385.105 256.698 385.104 256.152 385.104 255.63V249.422C385.104 249.389 385.104 249.355 385.104 249.322C385.105 247.965 385.111 246.465 385.123 244.885C385.151 241.065 385.209 236.779 385.281 232.928C385.31 231.408 385.341 229.955 385.373 228.626C385.374 228.567 385.376 228.508 385.377 228.449L395.049 227.293V224.189H369.591V227.293L379.101 228.401C379.103 228.476 379.106 228.551 379.108 228.626C379.144 229.938 379.175 231.372 379.201 232.879C379.268 236.684 379.307 240.954 379.325 244.885C379.33 246.093 379.334 247.269 379.335 248.39C379.336 248.705 379.336 249.016 379.336 249.322H346.52C346.521 249.016 346.521 248.705 346.522 248.39C346.525 247.27 346.531 246.094 346.54 244.885C346.569 240.974 346.626 236.72 346.696 232.918C346.724 231.398 346.755 229.951 346.786 228.626C346.787 228.593 346.788 228.559 346.789 228.526C346.789 228.497 346.79 228.468 346.791 228.439L356.464 227.293V224.189H346.918V224.089H340.354L340.36 224.189H330.907ZM413.853 255.277C408.854 258.758 406.783 262.791 406.783 267.846C406.783 277.258 413.446 282.264 421.998 282.264C424.378 282.264 426.492 281.915 428.486 281.212C431.681 280.084 434.566 278.047 437.731 275.076C438.965 273.917 440.243 272.616 441.598 271.172C441.662 271.875 441.749 272.549 441.859 273.193C442.061 274.368 442.341 275.443 442.7 276.409C444.07 280.091 446.601 282.206 450.398 282.356C450.542 282.362 450.689 282.364 450.837 282.364C451.448 282.364 452.045 282.316 452.627 282.217C455.172 281.787 457.428 280.403 459.29 277.959L457.599 275.856C457.427 276.002 457.26 276.14 457.097 276.271C456.997 276.352 456.898 276.43 456.801 276.505C455.319 277.649 454.154 278.159 452.627 278.159C452.04 278.159 451.495 278.087 450.995 277.926C449.116 277.323 447.873 275.473 447.434 271.543C447.317 270.497 447.257 269.303 447.257 267.946V241.412C447.257 240.85 447.246 240.302 447.225 239.768C446.906 231.753 444.196 226.869 439.118 224.48C436.518 223.257 433.296 222.688 429.456 222.688C429.055 222.688 428.657 222.694 428.263 222.708C426.938 222.754 425.658 222.878 424.431 223.077C421.742 223.513 419.301 224.311 417.163 225.45C416.644 225.727 416.143 226.024 415.66 226.341C415.095 226.711 414.556 227.109 414.044 227.533C413.782 227.75 413.527 227.974 413.28 228.205C413.193 228.285 413.108 228.367 413.023 228.449C413 228.471 412.978 228.493 412.955 228.515C410.745 230.684 409.142 233.43 408.275 236.706C408.573 238.808 409.866 240.01 412.054 240.01C414.241 240.01 415.534 238.708 416.23 236.205L418.338 228.564C418.717 228.376 419.095 228.202 419.471 228.04C419.783 227.906 420.094 227.781 420.405 227.664C421.409 227.287 422.408 226.997 423.408 226.783C425.016 226.44 426.626 226.292 428.263 226.292C428.671 226.292 429.068 226.299 429.456 226.313C432.567 226.423 435.056 226.997 436.94 228.361C439.778 230.417 441.241 234.267 441.379 241.03C441.386 241.383 441.39 241.744 441.39 242.113V245.572C440.917 245.679 440.44 245.788 439.961 245.898C438.976 246.126 437.979 246.363 436.978 246.608C434.538 247.206 432.073 247.854 429.692 248.547C428.285 248.957 426.906 249.382 425.58 249.823C425.49 249.852 425.4 249.882 425.311 249.912C425.301 249.916 425.29 249.919 425.28 249.923V249.823C425.27 249.826 425.26 249.829 425.25 249.833C425.221 249.843 425.192 249.853 425.163 249.864L425.152 249.867C425.1 249.886 425.048 249.904 424.996 249.923C423.519 250.446 422.144 250.978 420.868 251.522C418.075 252.711 415.753 253.954 413.853 255.277ZM420.868 255.662C419.132 256.647 417.733 257.677 416.626 258.745C414.046 261.234 413.048 263.928 413.048 266.744C413.048 273.653 417.523 277.258 424.086 277.258C425.186 277.258 426.232 277.156 427.256 276.942C430.439 276.276 433.419 274.525 437.186 271.377C437.264 271.313 437.341 271.248 437.419 271.182C438.029 270.668 438.66 270.117 439.316 269.529C439.419 269.436 439.523 269.342 439.628 269.248C439.675 269.205 439.722 269.163 439.769 269.12C439.885 269.015 440.002 268.909 440.119 268.801C440.141 268.781 440.163 268.761 440.185 268.741C440.578 268.382 440.979 268.01 441.39 267.625V248.625C439.949 248.981 438.463 249.368 436.978 249.775C433.211 250.808 429.447 251.976 426.419 253.11C426.404 253.115 426.389 253.121 426.374 253.127C426.365 253.13 426.356 253.134 426.347 253.137C424.23 253.94 422.415 254.783 420.868 255.662Z" fill="#00718A"/>
<path fill-rule="evenodd" clip-rule="evenodd" d="M124.841 10.7017C124.709 11.6376 124.456 15.2721 124.28 18.7785C123.828 27.7556 123.219 29.7775 119.337 35.2059C114.956 41.3323 103.946 54.2524 97.705 60.5929C90.7725 57.802 87.9198 59.8583 88.5665 60.0203C90.2542 60.4437 102.046 70.6672 104.804 75.4942C105.513 76.7337 107.342 80.006 108.869 82.7658C110.396 85.5259 112.315 88.8187 113.133 90.083C115.021 93 115.155 93.2332 114.95 93.2332C114.521 93.2332 99.0193 73.232 94.8472 67.2955C93.7012 65.6649 92.5169 64.2447 92.2154 64.1399C90.9675 63.7053 89.8398 65.0751 91.0601 65.5427C92.3067 66.0206 91.5671 68.2641 83.6958 87.8892C76.6452 105.468 57.8787 126.093 24.5897 128.787C24.5897 128.787 53.6765 148.82 51.7666 150.877C51.2672 151.415 50.3654 152.066 49.762 152.323C48.4919 152.866 48.5628 153.559 49.9463 154.122C50.8631 154.495 63.2731 157.757 89.527 164.527C112.1 170.348 117.609 171.848 118.02 172.288C118.302 172.589 118.32 173.903 118.087 177.126C117.911 179.559 117.703 181.742 117.626 181.976C117.291 182.986 98.1785 181.88 86.1201 180.152C81.4183 179.478 72.1784 177.716 71.2463 177.315C70.7748 177.112 69.7517 175.494 68.3964 172.808C67.2333 170.503 66.031 168.328 65.7247 167.975C64.951 167.083 63.7572 166.628 58.0851 165.064C49.5 162.697 47.8875 162.833 54.4751 165.369C56.4641 166.134 58.3805 167.079 58.7337 167.469C59.2731 168.064 59.3889 168.808 59.4574 172.107L59.5388 176.036L61.7223 179.303C65.3428 184.722 68.7116 190.009 68.7116 193.117C68.7116 194.457 67.6258 194.994 67.0309 194.994C66.0545 194.994 65.892 195.704 66.3168 198.115C66.7246 200.427 66.4739 201.12 65.2283 201.12C64.7367 201.12 64.7786 203.597 65.0256 203.844C65.372 204.19 75.6166 203.844 86.1201 203.844C92.9408 203.844 97.3908 204.208 106.215 204.208C117.57 204.208 119.979 204.208 137.101 204.208C158.17 204.208 154.149 204.215 170.192 204.208C178.062 204.205 189.375 203.75 190.748 203.844L189.403 197.206L190.748 193.126C193.266 185.489 195.979 182.081 203.488 177.123C208.572 173.766 209.099 173.304 209.762 171.63C210.085 170.813 210.646 170.352 212.118 169.694C214.807 168.492 220.373 166.549 223.418 165.75C224.824 165.381 227.472 164.507 229.303 163.807C231.937 162.801 232.822 162.287 233.54 161.346C234.31 160.338 234.348 160.196 233.788 160.412C231.632 161.242 226.055 162.701 225.641 162.542C225.371 162.438 224.585 161.504 223.895 160.466C223.205 159.427 222.432 158.578 222.177 158.578C221.923 158.578 221.715 158.336 221.715 158.041C221.715 157.142 219.524 152.852 212.342 139.689C196.995 111.561 191.089 100.359 181.564 81.3214C171.739 61.681 165.915 49.4724 163.585 43.635C162.672 41.3452 161.824 39.5074 161.703 39.5509C161.582 39.5945 159.43 41.6212 156.922 44.0546C149.607 51.1506 147.95 52.5079 146.914 52.2482C145.497 51.8929 140.964 47.0679 138.417 43.2038C137.121 41.2383 133.717 35.878 130.851 31.292L125.641 22.9538L125.621 17.3382C125.61 14.2497 125.484 11.1101 125.341 10.3613L125.082 9L124.841 10.7017ZM132.719 35.3907L137.101 46.7106L139.609 60.4506L133.391 65.8902C126.839 71.6222 125.071 73.039 124.804 72.7718C124.481 72.4495 124.46 66.9231 124.716 50.0105C124.998 31.4108 125.237 24.4853 125.599 24.4853C125.726 24.4853 128.93 29.3926 132.719 35.3907ZM123.598 47.1176C123.203 62.4157 122.69 71.4864 122.144 72.7875C121.922 73.3194 121.678 78.6133 121.525 86.2563C121.387 93.1821 121.26 99.1931 121.242 99.6145C121.192 100.851 120.289 100.507 119.009 98.7636C117.579 96.8172 117.536 96.1161 118.465 89.9554C119.444 83.4659 120.111 75.6106 120.688 63.7941C121.925 38.4496 122.286 33.2112 122.992 30.4412L123.426 28.7395L123.687 31.1218C123.831 32.4321 123.791 39.6302 123.598 47.1176ZM160.922 53.4989C160.626 67.9636 160.296 75.7433 159.964 76.0755C159.222 76.816 157.181 73.1077 156.462 69.7146C156.169 68.3301 155.808 65.5475 155.661 63.531C155.352 59.3088 155.348 59.3023 150.851 55.7009C149.446 54.5754 148.296 53.5371 148.296 53.3934C148.296 53.1494 160.741 41.2203 161.038 41.1801C161.112 41.1699 161.06 46.7137 160.922 53.4989ZM166.286 51.3718C169.33 58.2895 185.597 90.9992 192.942 104.975C199.364 117.191 208.839 134.741 215.325 146.431C218.317 151.824 220.698 156.304 220.616 156.386C220.533 156.468 219.406 154.972 218.109 153.061C207.564 137.514 192.222 117.628 178.253 101.401C173.188 95.5168 171.633 93.8958 171.633 94.4965C171.633 94.6952 172.687 97.8233 173.974 101.448C177.715 111.98 180.996 122.21 182.691 128.628C183.556 131.904 184.333 134.783 184.418 135.027C184.859 136.297 183.596 134.491 180.121 128.886C176.794 123.52 166.139 106.45 165.036 104.719C164.827 104.392 164.43 104.171 164.275 104.171C164.12 104.171 164.175 104.392 164.275 104.719C164.546 105.603 166.108 121.54 166.513 127.549C167.017 135.043 166.936 151.424 166.353 159.885L165.853 167.149L162.615 172.308C159.082 177.937 158.577 178.658 158.17 178.658C157.883 178.658 158.147 160.827 158.682 144.113C158.855 138.685 159.162 125.973 159.364 115.866C159.739 97.0582 159.859 94.5945 160.405 94.5945C160.842 94.5945 161.817 96.6501 162.965 99.9933C163.502 101.558 164.206 104.379 164.275 104.171C164.344 103.964 163.956 101.357 163.664 100.467C162.878 98.0666 162.193 93.6831 161.728 88.0883C161.335 83.3454 161.445 81.091 162.051 81.465C162.204 81.5596 163.801 83.7483 165.6 86.3288C169.443 91.8419 171.338 94.7882 171.633 94.4965C171.753 94.3784 170.781 92.4238 170.532 92.1676C169.714 91.3259 167.02 87.6772 164.729 84.3096C163.084 81.8908 162.41 80.5645 162.221 79.3747C161.925 77.5042 161.876 70.7883 162.037 53.9244L162.152 42.0126L162.833 43.5441C163.208 44.3864 164.762 47.9089 166.286 51.3718ZM139.505 68.3035C139.269 75.873 138.368 83.7647 136.874 91.3406C136.318 94.1599 135.863 96.5647 135.862 96.6849C135.862 96.8046 136.22 96.9929 136.658 97.1028C138.763 97.6306 146.691 103.467 151.604 108.105C153.476 109.872 155.085 111.24 155.18 111.144C155.362 110.962 155.477 109.601 156.782 92.0787C157.503 82.4057 157.538 81.0685 157.101 79.7889C156.799 78.9023 156.65 77.3915 156.712 75.8399L156.813 73.3269L157.921 75.0003C159.123 76.8164 159.404 78.8843 158.546 79.5956C158.131 79.9393 158.131 80.1231 158.544 80.9133C159.307 82.3734 159.178 88.2803 158.346 90C157.984 90.7487 157.685 91.7442 157.68 92.2122C157.666 93.7205 158.084 95.6073 158.39 95.4185C158.553 95.3177 158.689 96.5075 158.69 98.0629C158.694 102.216 157.947 116.137 157.694 116.623C157.552 116.896 156.238 115.947 153.908 113.889C138.441 100.225 134.537 96.9769 133.584 96.9769C133.201 96.9769 133.189 97.1208 133.517 97.7334C134.036 98.7024 133.715 113.3 132.961 123.013C131.418 142.892 127.277 169.412 125.54 170.54C125.353 170.662 123.738 172.825 123.864 173.152C124.078 173.709 128.276 173.152 137.999 171.724C144.787 171.6 151.551 171.402 153.03 171.286L155.72 171.073L155.545 175.048C155.448 177.234 155.311 179.076 155.239 179.142C155.084 179.286 139.539 181.215 134.541 181.711C132.597 181.904 128.552 182.163 125.553 182.287L120.1 182.511L120.316 179.308C120.586 175.314 121.099 156.575 121.555 134.073C122.024 110.964 122.537 95.5291 122.917 93.11C123.089 92.0124 123.458 90.9403 123.737 90.7276C124.148 90.4142 124.298 88.7676 124.519 82.0919L124.793 73.8439L125.643 73.2497C126.11 72.9229 128.089 71.2743 130.041 69.5863C136.005 64.4281 139.388 61.5819 139.555 61.5819C139.643 61.5819 139.62 64.6065 139.505 68.3035ZM119.241 101.975L120.7 103.91L120.63 110.058C120.565 115.69 119.663 139.942 118.827 158.497C118.639 162.664 118.486 166.931 118.486 167.98V169.886L116.909 169.65C114.87 169.345 114.397 169.151 114.397 168.623C114.397 168.385 114.057 167.964 113.642 167.689C112.892 167.191 112.89 167.164 113.317 163.308C113.554 161.174 114.277 155.963 114.923 151.727C117.154 137.112 117.167 136.941 117.362 117.822C117.462 108.042 117.598 100.04 117.663 100.04C117.729 100.04 118.439 100.91 119.241 101.975ZM157.604 119.694C157.785 120.049 157.732 124.424 157.471 130.5C157.23 136.115 156.857 145.764 156.642 151.941C156.426 158.118 156.147 164.551 156.021 166.235C155.814 168.995 155.724 169.298 155.11 169.298C154.152 169.298 154.089 167.473 154.754 158.918C155.505 149.244 155.945 138.911 155.956 130.67C155.968 122.309 156.216 119.099 156.85 119.099C157.098 119.099 157.437 119.367 157.604 119.694ZM58.408 151.928C60.6266 152.575 66.3516 154.342 71.1298 155.853C79.0702 158.364 84.8838 160.061 104.267 165.524C107.97 166.567 111.558 167.654 112.24 167.939C115.378 169.249 112.152 168.594 100.715 165.602C93.9056 163.82 80.1325 160.278 70.1077 157.73C60.0829 155.182 51.6648 153.024 51.4007 152.935C50.69 152.694 52.6616 150.75 53.6169 150.75C54.0332 150.75 56.1891 151.28 58.408 151.928ZM202.107 154.491C206.76 155.285 210.152 156.365 214.389 158.402C218.194 160.231 222.93 163.294 222.527 163.664C222.227 163.94 211.624 166.808 206.681 167.951C205.252 168.282 203.849 168.463 203.564 168.353C203.056 168.159 201.16 165.099 197.082 157.897C195.969 155.932 194.991 154.209 194.909 154.068C194.636 153.602 198.088 153.804 202.107 154.491ZM184.92 167.426C191.161 167.758 198.609 168.747 199.778 169.401C200.272 169.677 199.947 169.869 198.018 170.436C189.571 172.919 167.319 177.706 161.852 178.216L159.586 178.427L160.386 177.096C161.547 175.166 165.92 168.329 166.215 167.982C166.444 167.713 172.103 167.261 176.744 167.141C177.774 167.114 181.454 167.243 184.92 167.426Z" fill="#00718A"/>
<g clip-path="url(#clip1_411_216)">
<rect width="391" height="242" transform="translate(-49 208)" fill="white"/>
<path d="M27.6262 213.816H39.8781L40.2851 219.473H38.7384L37.1916 213.903L38.7791 214.865H27.6262V213.816Z" fill="#00718A"/>
<path d="M22 213.843H26.9771V215.311H26.6601L22 214.928V213.843ZM22 238.581L26.6601 238.198H26.9771V239.666H22V238.581ZM25.931 227.792V225.717C25.931 221.759 25.931 217.769 25.8359 213.843H28.0867C27.9916 217.737 27.9916 221.727 27.9916 225.941V227.792C27.9916 231.75 27.9916 235.74 28.0867 239.666H25.8359C25.931 235.772 25.931 231.782 25.931 227.792ZM26.9771 238.453H31.8592C36.8363 238.453 39.1506 236.41 39.1506 232.389C39.1506 228.718 37.1851 226.42 31.5739 226.42C29.9254 226.42 28.4671 226.483 26.9454 226.835V225.59C28.7524 225.302 30.496 225.175 32.1445 225.175C38.2629 225.175 41.2746 228.143 41.2746 232.357C41.2746 236.57 38.358 239.666 32.1445 239.666H26.9771V238.453Z" fill="#00718A"/>
<path d="M47.8685 229.835C47.8685 227.377 47.8368 225.302 47.7417 223.547L44.413 223.419V222.43L49.0415 221.217L49.4853 221.504L49.6438 224.632L49.7072 224.792V240.879C49.6755 243.369 49.7072 246.848 49.7706 248.955H47.71C47.7734 246.848 47.8368 243.401 47.8368 240.911V229.867L47.8685 229.835ZM53.4797 247.934V248.923H44.4764V247.934L48.4708 247.487H48.9781L53.448 247.934H53.4797ZM55.255 222.493C53.3529 222.493 51.3874 223.355 49.0732 225.973L48.7561 225.366C50.8167 222.27 53.3846 221.057 55.7622 221.057C60.0736 221.057 63.0853 224.792 63.0853 230.378C63.0853 236.315 59.9785 240.081 55.4135 240.081C53.1944 240.081 50.7533 239.251 48.7561 236.059L49.1366 235.517C51.1972 237.847 52.9724 238.677 55.1282 238.677C58.2983 238.677 61.0564 236.251 61.0564 230.537C61.0564 225.27 58.647 222.493 55.3184 222.493H55.255Z" fill="#00718A"/>
<path d="M66.6358 221.6H74.7831V222.589L71.0107 223.036H70.4717L66.6358 222.589V221.6ZM66.6358 238.645L70.44 238.198H70.979L74.7514 238.645V239.634H66.6041V238.645H66.6358ZM69.7743 231.591V229.612C69.7743 227.218 69.7426 223.291 69.6475 221.568H71.5496V239.634H69.6475C69.7109 237.911 69.7743 233.985 69.7743 231.591ZM82.9622 223.419L84.1034 223.706L71.0741 237.783L69.9011 237.528L82.9622 223.419ZM79.3799 221.6H87.5589V222.589L83.7864 223.036H83.2475L79.3799 222.589V221.6ZM79.3799 238.645L83.2158 238.198H83.7547L87.5589 238.645V239.634H79.3799V238.645ZM82.6451 221.6H84.5155C84.4521 223.323 84.3887 227.218 84.3887 229.643V231.623C84.3887 234.016 84.4204 237.943 84.5155 239.666H82.6451V221.6Z" fill="#00718A"/>
<path d="M90.9827 221.6H95.0405V223.036H94.8185L90.9827 222.589V221.6ZM90.9827 238.645L94.7551 238.198H95.2941L99.5104 238.645V239.634H90.9827V238.645ZM94.1211 231.591V229.803C94.1211 227.186 94.0894 223.291 93.9943 221.568H96.0866C96.0232 223.291 95.9598 227.186 95.9598 229.803V231.591C95.9598 233.985 95.9915 237.911 96.0866 239.634H93.9943C94.0577 237.911 94.1211 233.985 94.1211 231.591ZM95.0405 221.568H104.583L104.9 227.76H103.695L102.49 221.664L103.727 222.717H95.0405V221.6V221.568Z" fill="#00718A"/>
<path d="M113.966 229.803C115.868 229.165 118.119 228.622 120.053 228.207V229.165C118.214 229.58 115.932 230.218 114.315 230.825C111.081 232.037 110.067 233.538 110.067 235.166C110.067 237.368 111.494 238.517 113.586 238.517C115.425 238.517 116.819 237.623 119.197 235.357L119.768 234.846L119.99 235.74L119.324 236.41C117.01 238.9 115.425 240.113 112.92 240.113C110.194 240.113 108.07 238.517 108.07 235.517C108.07 232.995 109.687 231.271 113.966 229.771V229.803ZM119.102 235.964V227.313C119.102 223.26 117.739 222.27 114.917 222.27C113.491 222.27 112.128 222.621 110.669 223.643L111.874 222.557L111.081 225.43C110.86 226.228 110.447 226.643 109.75 226.643C109.053 226.643 108.64 226.26 108.545 225.59C109.306 222.717 111.842 221.121 115.298 221.121C119.07 221.121 120.972 222.845 120.972 227.09V235.549C120.972 238.038 121.606 238.804 122.684 238.804C123.255 238.804 123.667 238.581 124.269 238.07L124.808 238.741C124.079 239.698 123.16 240.145 122.114 240.145C120.18 240.145 119.229 238.613 119.134 236.027L119.102 235.964Z" fill="#00718A"/>
<path d="M126.869 221.6H135.016V222.589L131.244 223.036H130.705L126.869 222.589V221.6ZM126.869 238.645L130.705 238.198H131.244L135.016 238.645V239.634H126.869V238.645ZM130.007 231.591V229.612C130.007 227.218 129.976 223.291 129.881 221.568H131.973C131.909 223.291 131.846 227.186 131.846 229.803V230.537C131.846 233.985 131.878 237.911 131.973 239.634H129.881C129.944 237.911 130.007 233.985 130.007 231.591ZM130.927 229.612H143.259V230.729H130.927V229.612ZM139.201 221.6H147.348V222.589L143.576 223.036H143.037L139.201 222.589V221.6ZM139.201 238.645L143.037 238.198H143.576L147.348 238.645V239.634H139.201V238.645ZM142.339 230.569V229.835C142.339 227.218 142.308 223.323 142.212 221.6H144.305C144.241 223.323 144.178 227.218 144.178 229.643V231.623C144.178 234.016 144.21 237.943 144.305 239.666H142.212C142.276 237.943 142.339 234.016 142.339 230.569Z" fill="#00718A"/>
<path d="M150.201 221.6H167.288L167.605 227.409H166.401L165.355 221.695L166.432 222.749H151.057L152.135 221.695L151.089 227.409H149.884L150.201 221.6ZM154.291 238.645L158.475 238.198H159.014L163.199 238.645V239.634H154.291V238.645ZM157.81 231.591V229.612C157.81 227.218 157.778 223.291 157.683 221.568H159.775C159.712 223.291 159.648 227.186 159.648 229.612V231.591C159.648 233.985 159.68 237.911 159.775 239.634H157.683C157.746 237.911 157.81 233.985 157.81 231.591Z" fill="#00718A"/>
<path d="M170.554 221.6H178.701V222.589L174.928 223.036H174.39L170.554 222.589V221.6ZM170.554 238.645L174.358 238.198H174.897L178.701 238.645V239.634H170.554V238.645ZM173.692 231.591V229.612C173.692 227.218 173.66 223.291 173.565 221.568H175.467V239.634H173.565C173.629 237.911 173.692 233.985 173.692 231.591ZM186.88 223.419L188.021 223.706L174.992 237.783L173.819 237.528L186.88 223.419ZM183.298 221.6H191.477V222.589L187.704 223.036H187.165L183.298 222.589V221.6ZM183.298 238.645L187.134 238.198H187.672L191.477 238.645V239.634H183.298V238.645ZM186.563 221.6H188.433C188.37 223.323 188.307 227.218 188.307 229.643V231.623C188.307 234.016 188.338 237.943 188.433 239.666H186.563V221.6Z" fill="#00718A"/>
<path d="M194.9 221.6H203.048V222.589L199.275 223.036H198.736L194.9 222.589V221.6ZM194.9 238.645L198.736 238.198H199.275L203.048 238.645V239.634H194.9V238.645ZM198.039 231.591V229.612C198.039 227.218 198.007 223.291 197.912 221.568H200.004C199.941 223.291 199.878 227.186 199.878 229.803V230.537C199.878 233.985 199.909 237.911 200.004 239.634H197.912C197.976 237.911 198.039 233.985 198.039 231.591ZM198.958 229.612H211.29V230.729H198.958V229.612ZM207.201 221.6H215.348V222.589L211.607 223.036H211.068L207.232 222.589V221.6H207.201ZM207.201 238.645L211.037 238.198H211.575L215.316 238.645V239.634H207.169V238.645H207.201ZM210.339 230.569V229.835C210.339 227.218 210.307 223.323 210.212 221.6H212.305C212.241 223.323 212.178 227.218 212.178 229.643V231.623C212.178 234.016 212.21 237.943 212.305 239.666H210.212C210.276 237.943 210.339 234.016 210.339 230.569Z" fill="#00718A"/>
<path d="M224.985 229.803C226.887 229.165 229.138 228.622 231.072 228.207V229.165C229.233 229.58 226.951 230.218 225.334 230.825C222.132 232.037 221.086 233.538 221.086 235.166C221.086 237.368 222.513 238.517 224.605 238.517C226.444 238.517 227.807 237.623 230.216 235.357L230.787 234.846L231.009 235.74L230.343 236.41C228.029 238.9 226.444 240.113 223.939 240.113C221.213 240.113 219.089 238.517 219.089 235.517C219.089 232.995 220.706 231.271 224.985 229.771V229.803ZM230.121 235.964V227.313C230.121 223.26 228.758 222.27 225.936 222.27C224.51 222.27 223.147 222.621 221.688 223.643L222.893 222.557L222.1 225.43C221.879 226.228 221.466 226.643 220.769 226.643C220.072 226.643 219.659 226.26 219.564 225.59C220.325 222.717 222.861 221.121 226.317 221.121C230.089 221.121 231.991 222.845 231.991 227.09V235.549C231.991 238.038 232.625 238.804 233.703 238.804C234.274 238.804 234.686 238.581 235.288 238.07L235.827 238.741C235.098 239.698 234.179 240.145 233.133 240.145C231.199 240.145 230.248 238.613 230.153 236.027L230.121 235.964Z" fill="#00718A"/>
<path fill-rule="evenodd" clip-rule="evenodd" d="M22.0882 213.843H22V214.928L25.8659 215.246C25.866 215.25 25.8661 215.254 25.8662 215.257C25.8665 215.275 25.8668 215.293 25.8672 215.311C25.8754 215.755 25.8825 216.199 25.8888 216.644C25.8889 216.652 25.889 216.659 25.8891 216.667C25.9245 219.209 25.93 221.768 25.9308 224.319C25.931 224.743 25.931 225.166 25.931 225.59C25.931 225.632 25.931 225.675 25.931 225.717V227.792C25.931 228.035 25.931 228.277 25.931 228.52C25.9307 231.308 25.9277 234.093 25.8893 236.842C25.8884 236.908 25.8875 236.973 25.8865 237.039C25.8809 237.426 25.8745 237.812 25.8674 238.198C25.867 238.216 25.8667 238.234 25.8663 238.252C25.8663 238.256 25.8662 238.259 25.8661 238.263L22 238.581V239.666H32.1445C34.2065 239.666 35.9054 239.325 37.2552 238.716C39.9726 237.488 41.2746 235.172 41.2746 232.357C41.2746 229.31 39.6995 226.914 36.5134 225.821C35.2938 225.402 33.8382 225.175 32.1445 225.175C31.9555 225.175 31.7653 225.176 31.5739 225.18C30.8643 225.192 30.1383 225.229 29.3982 225.291C28.9346 225.33 28.4656 225.38 27.9916 225.44C27.9916 225.362 27.9916 225.284 27.9916 225.206C27.9916 224.807 27.9917 224.41 27.9919 224.015C27.9933 221.521 27.9999 219.1 28.0325 216.726C28.0329 216.699 28.0333 216.671 28.0336 216.644C28.0399 216.198 28.047 215.754 28.0553 215.311C28.0556 215.293 28.0559 215.275 28.0563 215.257C28.0564 215.248 28.0566 215.239 28.0568 215.23H28.0867M29.4636 215.23H28.3837ZM26.2196 213.834V213.843H22.0882M28.0603 238.453H31.8592C31.9553 238.453 32.0504 238.453 32.1445 238.451C34.0269 238.421 35.5131 238.086 36.6234 237.45C38.3326 236.471 39.1506 234.78 39.1506 232.389C39.1506 229.935 38.2726 228.095 36.0152 227.144C35.0121 226.722 33.7365 226.475 32.1445 226.428C31.9586 226.422 31.7684 226.42 31.5739 226.42C30.8167 226.42 30.0996 226.433 29.3981 226.482C29.0466 226.506 28.6989 226.539 28.352 226.584C28.2318 226.599 28.1117 226.616 27.9916 226.635V227.792C27.9916 227.884 27.9916 227.975 27.9916 228.067C27.9916 230.969 27.9929 233.887 28.0327 236.784C28.0339 236.869 28.0351 236.954 28.0363 237.039C28.042 237.426 28.0483 237.812 28.0554 238.198C28.0558 238.216 28.0561 238.234 28.0564 238.252C28.0577 238.319 28.059 238.386 28.0603 238.453ZM26.6804 213.816H26.2196V213.834M47.8368 229.867L47.8685 229.835C47.8685 228.698 47.8617 227.643 47.845 226.663C47.8448 226.649 47.8445 226.636 47.8443 226.622C47.8398 226.362 47.8345 226.106 47.8285 225.856C47.8191 225.465 47.8078 225.086 47.7944 224.719C47.7892 224.577 47.7837 224.438 47.7779 224.3C47.767 224.043 47.7549 223.792 47.7417 223.547L44.413 223.419V222.43L49.0415 221.217L49.4853 221.504L49.6222 224.207C50.0548 223.693 50.5035 223.249 50.9629 222.871C52.3294 221.744 53.7909 221.192 55.2054 221.079C55.3919 221.064 55.5776 221.057 55.7622 221.057C60.0736 221.057 63.0853 224.792 63.0853 230.378C63.0853 236.265 60.03 240.018 55.5272 240.08C55.4894 240.081 55.4515 240.081 55.4135 240.081C55.3188 240.081 55.2236 240.08 55.1282 240.077C53.8118 240.033 52.4284 239.68 51.1137 238.704C50.6335 238.348 50.1625 237.908 49.7072 237.371V240.879C49.6873 242.438 49.6923 244.384 49.7144 246.139C49.7204 246.613 49.7276 247.074 49.7359 247.509C49.7361 247.519 49.7363 247.53 49.7365 247.541C49.7367 247.548 49.7368 247.555 49.7369 247.563L53.448 247.934H53.4797V248.923H49.7706V248.955H47.71L47.7109 248.923H44.4764V247.934L47.7471 247.568C47.7473 247.559 47.7475 247.55 47.7477 247.541C47.748 247.53 47.7482 247.519 47.7485 247.509C47.7588 247.074 47.7687 246.615 47.778 246.141C47.812 244.398 47.8368 242.467 47.8368 240.911V229.867ZM50.1341 236.549C50.4645 236.857 50.79 237.127 51.1137 237.362C52.4145 238.305 53.6862 238.677 55.1282 238.677C55.2237 238.677 55.3188 238.675 55.4135 238.67C55.436 238.669 55.4586 238.668 55.4811 238.667C58.5003 238.491 61.0564 236.038 61.0564 230.537C61.0564 225.27 58.647 222.493 55.3184 222.493H55.255C53.9103 222.493 52.534 222.924 51.0253 224.101C51.0055 224.117 50.9858 224.132 50.966 224.148C50.8571 224.234 50.7475 224.324 50.6372 224.418C50.5711 224.474 50.5048 224.532 50.4383 224.591C50.3652 224.656 50.2918 224.723 50.2181 224.792C50.1795 224.828 50.1407 224.864 50.1019 224.901C49.9714 225.025 49.8399 225.155 49.7072 225.29V236.131C49.8505 236.277 49.9927 236.417 50.1341 236.549ZM66.6358 221.6V222.589L69.7003 222.946C69.7006 222.958 69.701 222.97 69.7013 222.982C69.7016 222.993 69.7019 223.003 69.7022 223.014C69.7136 223.435 69.7234 223.894 69.7318 224.374C69.7625 226.125 69.7743 228.153 69.7743 229.612V231.591C69.7743 232.725 69.7601 234.203 69.7383 235.628C69.732 236.046 69.7249 236.46 69.7174 236.859C69.7143 237.024 69.7111 237.187 69.7079 237.347C69.7017 237.651 69.6952 237.944 69.6886 238.22C69.688 238.242 69.6875 238.264 69.687 238.286L66.6358 238.645H66.6041V239.634H74.7514V238.645L71.5496 238.266V237.269L82.6451 225.282V238.264L79.3799 238.645V239.634H82.6451V239.666H84.5155L84.5138 239.634H87.5589V238.645L84.4625 238.281C84.4623 238.271 84.462 238.262 84.4617 238.252C84.4614 238.241 84.4611 238.231 84.4608 238.22C84.4494 237.797 84.4395 237.336 84.4311 236.854C84.4005 235.104 84.3887 233.079 84.3887 231.623V229.643C84.3887 228.451 84.4041 226.903 84.4272 225.433C84.4328 225.076 84.4389 224.724 84.4453 224.382C84.4475 224.264 84.4497 224.148 84.452 224.033C84.4592 223.676 84.4666 223.334 84.4744 223.014C84.4748 222.994 84.4753 222.974 84.4758 222.954L87.5589 222.589V221.6H79.3799V222.589L82.6451 222.966V223.762L71.5496 235.747V222.972L74.7831 222.589V221.6H71.5496V221.568H69.6475L69.6492 221.6H66.6358ZM90.9827 221.6V222.589L94.0472 222.946C94.0475 222.958 94.0478 222.97 94.0481 222.982C94.0484 222.993 94.0487 223.003 94.049 223.014C94.0492 223.021 94.0494 223.029 94.0496 223.036C94.0588 223.379 94.067 223.746 94.0742 224.131C94.0757 224.211 94.0772 224.292 94.0786 224.374C94.1093 226.137 94.1211 228.207 94.1211 229.803V231.591C94.1211 233.057 94.0973 235.098 94.0643 236.856C94.0553 237.338 94.0455 237.798 94.0354 238.22C94.0349 238.241 94.0344 238.262 94.0339 238.283L90.9827 238.645V239.634H99.5104V238.645L96.0344 238.276C96.0338 238.258 96.0333 238.239 96.0328 238.22C96.0212 237.797 96.0112 237.335 96.0027 236.851C95.9717 235.094 95.9598 233.056 95.9598 231.591V229.803C95.9598 228.231 95.9827 226.197 96.0147 224.45C96.0167 224.343 96.0187 224.236 96.0207 224.131C96.0282 223.746 96.0361 223.379 96.0442 223.036C96.0446 223.018 96.0451 223 96.0455 222.982C96.0477 222.892 96.0498 222.803 96.052 222.717H102.698L103.695 227.76H104.9L104.583 221.568H93.9943L93.996 221.6H90.9827ZM110.271 231.547C108.716 232.648 108.07 233.923 108.07 235.517C108.07 238.517 110.194 240.113 112.92 240.113C113.676 240.113 114.348 240.003 114.982 239.78C116.003 239.421 116.924 238.771 117.935 237.822C118.329 237.452 118.736 237.038 119.168 236.577C119.189 236.804 119.217 237.021 119.253 237.229C119.317 237.6 119.406 237.94 119.52 238.247C119.957 239.42 120.763 240.094 121.974 240.142C122.02 240.144 122.066 240.145 122.114 240.145C122.308 240.145 122.499 240.13 122.684 240.098C123.495 239.961 124.215 239.52 124.808 238.741L124.269 238.07C124.215 238.117 124.161 238.161 124.109 238.203C124.077 238.228 124.046 238.253 124.015 238.277C123.542 238.642 123.171 238.804 122.684 238.804C122.497 238.804 122.323 238.781 122.164 238.73C121.565 238.538 121.169 237.948 121.029 236.695C120.991 236.362 120.972 235.981 120.972 235.549V227.09C120.972 226.911 120.969 226.736 120.962 226.566C120.861 224.011 119.996 222.454 118.378 221.692C117.549 221.302 116.522 221.121 115.298 221.121C115.17 221.121 115.043 221.123 114.917 221.127C114.495 221.142 114.087 221.182 113.696 221.245C112.839 221.384 112.06 221.638 111.379 222.002C111.213 222.09 111.053 222.184 110.9 222.285C110.72 222.404 110.548 222.53 110.384 222.666C110.301 222.735 110.22 222.806 110.141 222.88C110.113 222.905 110.086 222.931 110.059 222.958C110.052 222.965 110.045 222.972 110.037 222.979C109.333 223.67 108.822 224.546 108.545 225.59C108.64 226.26 109.053 226.643 109.75 226.643C110.447 226.643 110.86 226.228 111.081 225.43L111.753 222.994C111.874 222.934 111.995 222.879 112.115 222.827C112.214 222.785 112.313 222.745 112.412 222.707C112.732 222.587 113.051 222.495 113.37 222.427C113.882 222.317 114.396 222.27 114.917 222.27C115.047 222.27 115.174 222.272 115.298 222.276C116.289 222.312 117.083 222.495 117.683 222.93C118.588 223.585 119.054 224.812 119.099 226.968C119.101 227.081 119.102 227.196 119.102 227.313V228.416C118.951 228.45 118.799 228.485 118.646 228.52C118.332 228.593 118.015 228.668 117.695 228.746C116.918 228.937 116.132 229.143 115.373 229.364C114.924 229.495 114.485 229.631 114.062 229.771C114.033 229.781 114.005 229.79 113.976 229.8C113.973 229.801 113.97 229.802 113.966 229.803V229.771C113.963 229.772 113.96 229.773 113.957 229.774C113.948 229.778 113.938 229.781 113.929 229.784C113.911 229.791 113.893 229.797 113.876 229.803C113.405 229.97 112.967 230.14 112.56 230.313C111.644 230.703 110.886 231.111 110.271 231.547ZM112.56 231.626C111.982 231.951 111.523 232.291 111.165 232.645C110.368 233.43 110.067 234.279 110.067 235.166C110.067 237.368 111.494 238.517 113.586 238.517C113.934 238.517 114.267 238.485 114.593 238.418C115.612 238.207 116.57 237.652 117.763 236.652C117.788 236.631 117.814 236.609 117.84 236.588C118.036 236.421 118.239 236.243 118.449 236.053C118.482 236.023 118.515 235.994 118.548 235.964C118.561 235.952 118.574 235.94 118.587 235.928C118.624 235.894 118.662 235.859 118.7 235.824C118.707 235.818 118.714 235.811 118.721 235.805C118.845 235.69 118.972 235.571 119.102 235.448V229.39C118.643 229.503 118.169 229.626 117.695 229.756C116.495 230.085 115.295 230.458 114.33 230.819C114.325 230.821 114.32 230.823 114.315 230.825C114.312 230.826 114.309 230.827 114.306 230.828C113.631 231.082 113.052 231.348 112.56 231.626ZM126.869 238.645V239.634H135.016V238.645L131.921 238.278C131.92 238.259 131.92 238.24 131.919 238.22C131.908 237.803 131.898 237.342 131.89 236.85C131.866 235.447 131.853 233.788 131.848 232.143C131.847 231.769 131.847 231.395 131.846 231.026C131.846 230.927 131.846 230.827 131.846 230.729H142.339C142.339 230.827 142.339 230.927 142.339 231.026C142.338 231.395 142.337 231.769 142.335 232.143C142.327 233.79 142.307 235.454 142.282 236.862C142.273 237.349 142.264 237.805 142.254 238.22C142.254 238.231 142.253 238.241 142.253 238.252C142.253 238.264 142.253 238.277 142.252 238.289L139.201 238.645V239.634H142.212V239.666H144.305L144.303 239.634H147.348V238.645L144.252 238.278C144.251 238.269 144.251 238.261 144.251 238.252C144.251 238.241 144.25 238.231 144.25 238.22C144.239 237.796 144.229 237.334 144.22 236.85C144.193 235.301 144.181 233.538 144.178 232.143C144.178 231.963 144.178 231.789 144.178 231.623V229.643C144.178 229.633 144.178 229.622 144.178 229.612C144.178 229.179 144.18 228.701 144.184 228.197C144.193 226.978 144.211 225.611 144.234 224.382C144.244 223.899 144.253 223.437 144.264 223.014C144.264 222.994 144.265 222.974 144.265 222.954L147.348 222.589V221.6H139.201V222.589L142.264 222.946C142.265 222.969 142.266 222.991 142.266 223.014C142.278 223.433 142.288 223.892 142.296 224.374C142.317 225.586 142.33 226.945 142.335 228.197C142.337 228.582 142.338 228.957 142.339 229.314C142.339 229.415 142.339 229.514 142.339 229.612H131.846C131.846 229.514 131.846 229.415 131.847 229.314C131.848 228.957 131.85 228.583 131.852 228.197C131.862 226.95 131.88 225.594 131.902 224.382C131.911 223.898 131.921 223.436 131.931 223.014C131.931 223.003 131.931 222.993 131.932 222.982C131.932 222.973 131.932 222.964 131.932 222.954L135.016 222.589V221.6H131.973V221.568H129.881L129.882 221.6H126.869V222.589L129.933 222.946C129.934 222.958 129.934 222.97 129.934 222.982C129.935 222.993 129.935 223.003 129.935 223.014C129.947 223.435 129.956 223.894 129.965 224.374C129.987 225.61 129.999 226.983 130.004 228.197C130.006 228.704 130.007 229.182 130.007 229.612V231.591C130.007 231.767 130.007 231.952 130.006 232.143C130.001 233.546 129.979 235.314 129.95 236.862C129.941 237.342 129.932 237.8 129.922 238.22C129.921 238.243 129.92 238.266 129.92 238.289L126.869 238.645ZM149.884 227.409H151.089L151.942 222.749H157.73C157.732 222.825 157.734 222.903 157.737 222.982C157.737 222.993 157.737 223.003 157.737 223.014C157.747 223.373 157.756 223.76 157.763 224.163C157.797 225.961 157.81 228.094 157.81 229.612V231.591C157.81 233.056 157.786 235.096 157.753 236.853C157.744 237.336 157.734 237.798 157.724 238.22C157.723 238.24 157.723 238.259 157.722 238.278L154.291 238.645V239.634H163.199V238.645L159.723 238.274C159.722 238.256 159.722 238.238 159.721 238.22C159.71 237.796 159.7 237.333 159.691 236.848C159.66 235.092 159.648 233.055 159.648 231.591V229.612C159.648 228.076 159.674 225.952 159.708 224.163C159.716 223.76 159.725 223.373 159.733 223.014C159.733 223.003 159.734 222.993 159.734 222.982C159.736 222.903 159.738 222.825 159.74 222.749H165.547L166.401 227.409H167.605L167.288 221.6H159.775V221.568H157.683L157.685 221.6H150.201L149.884 227.409ZM170.554 221.6V222.589L173.618 222.946C173.618 222.958 173.619 222.97 173.619 222.982C173.619 222.993 173.62 223.003 173.62 223.014C173.631 223.435 173.641 223.894 173.65 224.374C173.68 226.125 173.692 228.153 173.692 229.612V231.591C173.692 232.725 173.678 234.203 173.656 235.628C173.65 236.046 173.643 236.46 173.635 236.859C173.632 237.024 173.629 237.187 173.626 237.347C173.619 237.651 173.613 237.944 173.606 238.22C173.606 238.242 173.605 238.264 173.605 238.286L170.554 238.645V239.634H178.701V238.645L175.467 238.265V237.269L186.563 225.282V238.264L183.298 238.645V239.634H186.563V239.666H188.433L188.432 239.634H191.477V238.645L188.38 238.281C188.38 238.271 188.38 238.262 188.38 238.252C188.379 238.241 188.379 238.231 188.379 238.22C188.367 237.797 188.357 237.336 188.349 236.853C188.318 235.104 188.307 233.079 188.307 231.623V229.643C188.307 228.451 188.322 226.903 188.345 225.433C188.351 225.076 188.357 224.724 188.363 224.382C188.365 224.264 188.368 224.148 188.37 224.033C188.377 223.676 188.384 223.334 188.392 223.014C188.393 222.994 188.393 222.974 188.394 222.954L191.477 222.589V221.6H183.298V222.589L186.563 222.966V223.762L175.467 235.747V222.972L178.701 222.589V221.6H175.467V221.568H173.565L173.567 221.6H170.554ZM194.9 221.6V222.589L197.965 222.946C197.965 222.958 197.966 222.97 197.966 222.982C197.966 222.993 197.967 223.003 197.967 223.014C197.978 223.435 197.988 223.894 197.996 224.374C198.018 225.61 198.03 226.983 198.036 228.197C198.038 228.704 198.039 229.182 198.039 229.612V231.591C198.039 231.767 198.039 231.952 198.038 232.143C198.033 233.546 198.011 235.314 197.982 236.862C197.973 237.342 197.963 237.8 197.953 238.22C197.953 238.243 197.952 238.266 197.952 238.289L194.9 238.645V239.634H203.048V238.645L199.952 238.278C199.952 238.259 199.951 238.24 199.951 238.22C199.94 237.803 199.93 237.342 199.922 236.85C199.898 235.447 199.885 233.788 199.88 232.143C199.879 231.769 199.878 231.395 199.878 231.026C199.878 230.927 199.878 230.827 199.878 230.729H210.339C210.339 230.827 210.339 230.927 210.339 231.026C210.338 231.395 210.337 231.769 210.335 232.143C210.327 233.79 210.307 235.454 210.282 236.862C210.273 237.349 210.264 237.805 210.254 238.22C210.254 238.231 210.253 238.241 210.253 238.252C210.253 238.264 210.253 238.277 210.252 238.289L207.201 238.645H207.169V239.634H210.212V239.666H212.305L212.303 239.634H215.316V238.645L212.252 238.279C212.251 238.27 212.251 238.261 212.251 238.252C212.251 238.241 212.25 238.231 212.25 238.22C212.238 237.796 212.229 237.334 212.22 236.851C212.193 235.301 212.181 233.538 212.178 232.143C212.178 231.963 212.178 231.789 212.178 231.623V229.643C212.178 229.633 212.178 229.622 212.178 229.612C212.178 229.179 212.18 228.701 212.184 228.197C212.193 226.979 212.211 225.613 212.234 224.385C212.243 223.901 212.253 223.438 212.263 223.014C212.264 222.995 212.264 222.976 212.265 222.958L215.348 222.589V221.6H207.232V222.589L210.264 222.942C210.265 222.966 210.266 222.99 210.266 223.014C210.278 223.432 210.288 223.889 210.296 224.37C210.317 225.583 210.33 226.944 210.335 228.197C210.337 228.582 210.338 228.957 210.339 229.314C210.339 229.415 210.339 229.514 210.339 229.612H199.878C199.878 229.514 199.878 229.415 199.878 229.314C199.879 228.957 199.881 228.583 199.884 228.197C199.893 226.95 199.911 225.594 199.934 224.382C199.943 223.898 199.952 223.436 199.963 223.014C199.963 223.003 199.963 222.993 199.963 222.982C199.964 222.973 199.964 222.964 199.964 222.954L203.048 222.589V221.6H200.004V221.568H197.912L197.914 221.6H194.9ZM221.343 231.51C219.749 232.62 219.089 233.905 219.089 235.517C219.089 238.517 221.213 240.113 223.939 240.113C224.698 240.113 225.372 240.002 226.007 239.778C227.026 239.418 227.945 238.769 228.954 237.822C229.348 237.452 229.755 237.037 230.187 236.577C230.208 236.801 230.235 237.016 230.271 237.221C230.335 237.596 230.424 237.938 230.539 238.247C230.975 239.42 231.782 240.095 232.993 240.142C233.039 240.144 233.085 240.145 233.133 240.145C233.327 240.145 233.518 240.13 233.703 240.098C234.514 239.961 235.234 239.52 235.827 238.741L235.288 238.07C235.233 238.117 235.18 238.161 235.128 238.203C235.096 238.228 235.065 238.253 235.034 238.277C234.561 238.642 234.19 238.804 233.703 238.804C233.516 238.804 233.342 238.781 233.183 238.73C232.584 238.538 232.188 237.948 232.048 236.695C232.01 236.362 231.991 235.981 231.991 235.549V227.09C231.991 226.911 231.988 226.736 231.981 226.566C231.88 224.011 231.015 222.454 229.397 221.692C228.568 221.302 227.541 221.121 226.317 221.121C226.189 221.121 226.062 221.123 225.936 221.127C225.514 221.142 225.106 221.182 224.715 221.245C223.858 221.384 223.079 221.638 222.398 222.002C222.232 222.09 222.072 222.184 221.919 222.285C221.739 222.404 221.567 222.53 221.403 222.666C221.32 222.735 221.239 222.806 221.16 222.88C221.132 222.905 221.105 222.931 221.078 222.958C221.071 222.965 221.063 222.972 221.056 222.979C220.352 223.67 219.841 224.546 219.564 225.59C219.659 226.26 220.072 226.643 220.769 226.643C221.466 226.643 221.879 226.228 222.1 225.43L222.772 222.994C222.893 222.934 223.013 222.879 223.134 222.827C223.233 222.785 223.332 222.745 223.431 222.707C223.751 222.587 224.07 222.495 224.389 222.427C224.901 222.317 225.415 222.27 225.936 222.27C226.066 222.27 226.193 222.272 226.317 222.276C227.308 222.312 228.102 222.495 228.702 222.93C229.607 223.585 230.073 224.812 230.117 226.968C230.12 227.081 230.121 227.196 230.121 227.313V228.416C229.97 228.45 229.818 228.485 229.665 228.52C229.351 228.593 229.034 228.668 228.714 228.746C227.937 228.937 227.151 229.143 226.392 229.364C225.943 229.495 225.504 229.631 225.081 229.771C225.052 229.781 225.024 229.79 224.995 229.8C224.992 229.801 224.989 229.802 224.985 229.803V229.771C224.982 229.772 224.979 229.773 224.976 229.774C224.967 229.778 224.957 229.781 224.948 229.784L224.945 229.785C224.928 229.791 224.911 229.797 224.895 229.803C224.424 229.97 223.986 230.14 223.579 230.313C222.689 230.692 221.948 231.088 221.343 231.51ZM223.579 231.633C223.025 231.947 222.58 232.275 222.227 232.616C221.404 233.409 221.086 234.268 221.086 235.166C221.086 237.368 222.513 238.517 224.605 238.517C224.955 238.517 225.289 238.485 225.615 238.416C226.63 238.204 227.58 237.646 228.781 236.643C228.806 236.622 228.83 236.601 228.855 236.58C229.05 236.416 229.251 236.241 229.46 236.053C229.493 236.024 229.526 235.994 229.559 235.964C229.574 235.95 229.589 235.937 229.604 235.923C229.641 235.889 229.678 235.856 229.716 235.821C229.723 235.815 229.73 235.808 229.737 235.802C229.862 235.688 229.99 235.569 230.121 235.446V229.39C229.662 229.503 229.188 229.626 228.714 229.756C227.514 230.085 226.314 230.458 225.349 230.819C225.344 230.821 225.339 230.823 225.334 230.825C225.331 230.826 225.328 230.827 225.325 230.828C224.651 231.084 224.072 231.353 223.579 231.633Z" fill="#00718A"/>
<path fill-rule="evenodd" clip-rule="evenodd" d="M129.209 153.542C129.167 153.841 129.087 154.999 129.03 156.117C128.886 158.979 128.692 159.624 127.455 161.354C126.058 163.307 122.548 167.426 120.559 169.447C118.349 168.557 117.439 169.213 117.645 169.265C118.183 169.4 121.942 172.659 122.822 174.197C123.048 174.593 123.631 175.636 124.118 176.516C124.604 177.395 125.216 178.445 125.477 178.848C126.079 179.778 126.122 179.852 126.056 179.852C125.919 179.852 120.978 173.476 119.648 171.584C119.282 171.064 118.905 170.611 118.809 170.578C118.411 170.439 118.051 170.876 118.44 171.025C118.838 171.177 118.602 171.893 116.093 178.149C113.845 183.753 107.863 190.328 97.2504 191.186C97.2504 191.186 106.523 197.573 105.914 198.229C105.755 198.4 105.467 198.608 105.275 198.69C104.87 198.863 104.893 199.084 105.334 199.263C105.626 199.382 109.582 200.422 117.952 202.58C125.147 204.436 126.904 204.914 127.035 205.054C127.125 205.15 127.13 205.569 127.056 206.596C127 207.372 126.934 208.068 126.909 208.142C126.802 208.465 120.71 208.112 116.866 207.561C115.367 207.346 112.421 206.785 112.124 206.657C111.974 206.592 111.647 206.076 111.215 205.22C110.845 204.485 110.461 203.792 110.364 203.679C110.117 203.395 109.736 203.25 107.928 202.751C105.191 201.997 104.677 202.04 106.777 202.848C107.412 203.092 108.022 203.394 108.135 203.518C108.307 203.708 108.344 203.945 108.366 204.996L108.392 206.249L109.088 207.291C110.242 209.018 111.316 210.703 111.316 211.694C111.316 212.121 110.97 212.292 110.78 212.292C110.469 212.292 110.417 212.519 110.552 213.287C110.682 214.025 110.603 214.245 110.205 214.245C110.049 214.245 110.062 215.035 110.141 215.114C110.251 215.224 113.517 215.114 116.866 215.114C119.04 215.114 120.458 215.23 123.272 215.23C126.891 215.23 127.659 215.23 133.117 215.23C139.834 215.23 138.552 215.232 143.667 215.23C146.175 215.229 149.782 215.084 150.22 215.114L149.791 212.998L150.22 211.697C151.022 209.262 151.887 208.176 154.281 206.595C155.902 205.525 156.07 205.378 156.281 204.844C156.384 204.584 156.563 204.437 157.032 204.227C157.889 203.844 159.663 203.225 160.634 202.97C161.082 202.852 161.927 202.574 162.51 202.351C163.35 202.03 163.632 201.866 163.861 201.566C164.107 201.244 164.119 201.199 163.94 201.268C163.253 201.533 161.475 201.998 161.343 201.947C161.257 201.914 161.006 201.616 160.786 201.285C160.566 200.954 160.32 200.683 160.239 200.683C160.158 200.683 160.091 200.606 160.091 200.512C160.091 200.226 159.393 198.858 157.103 194.662C152.211 185.695 150.328 182.124 147.292 176.055C144.16 169.794 142.303 165.902 141.56 164.041C141.269 163.311 140.999 162.725 140.96 162.739C140.922 162.753 140.236 163.399 139.436 164.175C137.104 166.437 136.576 166.87 136.246 166.787C135.794 166.674 134.349 165.136 133.537 163.904C133.124 163.277 132.039 161.568 131.125 160.106L129.464 157.448L129.458 155.658C129.454 154.674 129.414 153.673 129.369 153.434L129.286 153L129.209 153.542ZM131.721 161.413L133.117 165.022L133.917 169.402L131.935 171.136C129.846 172.963 129.283 173.415 129.197 173.33C129.095 173.227 129.088 171.465 129.169 166.074C129.259 160.144 129.336 157.937 129.451 157.937C129.491 157.937 130.513 159.501 131.721 161.413ZM128.813 165.151C128.687 170.028 128.523 172.92 128.35 173.335C128.279 173.504 128.201 175.192 128.152 177.628C128.108 179.836 128.068 181.752 128.062 181.887C128.046 182.281 127.758 182.171 127.35 181.615C126.894 180.995 126.88 180.772 127.177 178.808C127.489 176.739 127.702 174.235 127.885 170.468C128.28 162.388 128.395 160.718 128.62 159.835L128.758 159.293L128.841 160.052C128.887 160.47 128.874 162.765 128.813 165.151ZM140.711 167.186C140.617 171.797 140.512 174.277 140.406 174.383C140.17 174.619 139.519 173.437 139.29 172.355C139.196 171.914 139.081 171.027 139.034 170.384C138.936 169.038 138.935 169.036 137.501 167.888C137.053 167.529 136.686 167.198 136.686 167.152C136.686 167.074 140.654 163.271 140.748 163.259C140.772 163.255 140.755 165.023 140.711 167.186ZM142.421 166.508C143.392 168.713 148.577 179.14 150.919 183.596C152.966 187.49 155.987 193.084 158.054 196.811C159.008 198.53 159.767 199.958 159.741 199.985C159.715 200.011 159.355 199.534 158.942 198.925C155.58 193.969 150.689 187.629 146.236 182.456C144.621 180.58 144.126 180.064 144.126 180.255C144.126 180.319 144.462 181.316 144.872 182.471C146.065 185.829 147.111 189.09 147.651 191.136C147.927 192.18 148.175 193.098 148.202 193.176C148.342 193.581 147.939 193.005 146.832 191.218C145.771 189.507 142.375 184.066 142.023 183.514C141.956 183.41 141.83 183.339 141.78 183.339C141.731 183.339 141.748 183.41 141.78 183.514C141.867 183.796 142.365 188.876 142.494 190.792C142.654 193.181 142.629 198.403 142.443 201.1L142.283 203.416L141.251 205.06C140.125 206.855 139.964 207.085 139.834 207.085C139.743 207.085 139.827 201.401 139.997 196.072C140.052 194.342 140.15 190.29 140.215 187.067C140.334 181.072 140.373 180.286 140.546 180.286C140.686 180.286 140.997 180.942 141.363 182.007C141.534 182.506 141.758 183.406 141.78 183.339C141.802 183.273 141.678 182.442 141.585 182.158C141.335 181.393 141.117 179.996 140.968 178.212C140.843 176.7 140.878 175.982 141.071 176.101C141.12 176.131 141.629 176.829 142.203 177.651C143.428 179.409 144.032 180.348 144.126 180.255C144.164 180.218 143.854 179.594 143.775 179.513C143.514 179.244 142.655 178.081 141.925 177.008C141.401 176.237 141.186 175.814 141.126 175.435C141.031 174.838 141.016 172.697 141.067 167.321L141.103 163.524L141.321 164.012C141.44 164.281 141.935 165.404 142.421 166.508ZM133.884 171.905C133.809 174.318 133.521 176.834 133.045 179.249C132.868 180.148 132.723 180.915 132.723 180.953C132.722 180.991 132.837 181.051 132.976 181.086C133.647 181.254 136.175 183.115 137.741 184.593C138.338 185.157 138.851 185.593 138.881 185.562C138.939 185.504 138.976 185.07 139.392 179.484C139.621 176.401 139.632 175.975 139.493 175.567C139.397 175.284 139.349 174.802 139.369 174.308L139.402 173.507L139.755 174.04C140.138 174.619 140.227 175.278 139.954 175.505C139.822 175.615 139.822 175.673 139.953 175.925C140.196 176.39 140.155 178.274 139.89 178.822C139.775 179.06 139.679 179.378 139.678 179.527C139.674 180.008 139.807 180.609 139.904 180.549C139.956 180.517 139.999 180.896 140 181.392C140.001 182.716 139.763 187.154 139.682 187.309C139.637 187.396 139.218 187.093 138.475 186.437C133.545 182.081 132.3 181.046 131.996 181.046C131.874 181.046 131.87 181.092 131.975 181.287C132.14 181.596 132.038 186.25 131.798 189.346C131.306 195.683 129.986 204.137 129.432 204.497C129.373 204.536 128.858 205.225 128.898 205.33C128.966 205.507 130.304 205.33 133.404 204.874C135.568 204.835 137.724 204.772 138.196 204.735L139.053 204.667L138.997 205.934C138.966 206.631 138.923 207.218 138.9 207.239C138.85 207.285 133.895 207.9 132.301 208.058C131.682 208.12 130.392 208.202 129.436 208.242L127.698 208.313L127.767 207.292C127.853 206.019 128.016 200.045 128.162 192.872C128.311 185.505 128.475 180.584 128.596 179.813C128.651 179.463 128.768 179.122 128.857 179.054C128.988 178.954 129.036 178.429 129.107 176.301L129.194 173.671L129.465 173.482C129.614 173.378 130.245 172.852 130.867 172.314C132.768 170.67 133.847 169.762 133.9 169.762C133.928 169.762 133.92 170.727 133.884 171.905ZM127.424 182.639L127.889 183.256L127.867 185.216C127.846 187.011 127.558 194.742 127.292 200.658C127.232 201.986 127.183 203.346 127.183 203.681V204.288L126.681 204.213C126.031 204.116 125.88 204.054 125.88 203.886C125.88 203.81 125.772 203.676 125.639 203.588C125.4 203.429 125.399 203.421 125.536 202.192C125.611 201.511 125.842 199.85 126.048 198.5C126.759 193.84 126.763 193.786 126.825 187.691C126.857 184.573 126.9 182.022 126.921 182.022C126.942 182.022 127.168 182.3 127.424 182.639ZM139.654 188.288C139.711 188.401 139.694 189.796 139.611 191.733C139.535 193.523 139.416 196.599 139.347 198.568C139.278 200.537 139.189 202.588 139.149 203.125C139.083 204.004 139.054 204.101 138.859 204.101C138.553 204.101 138.533 203.519 138.745 200.792C138.984 197.708 139.125 194.414 139.128 191.787C139.132 189.121 139.211 188.098 139.413 188.098C139.492 188.098 139.6 188.184 139.654 188.288ZM108.031 198.563C108.739 198.77 110.564 199.333 112.087 199.815C114.618 200.615 116.471 201.156 122.65 202.898C123.831 203.23 124.975 203.577 125.192 203.668C126.193 204.085 125.164 203.877 121.518 202.923C119.347 202.355 114.957 201.225 111.761 200.413C108.565 199.601 105.882 198.913 105.797 198.885C105.571 198.808 106.199 198.188 106.504 198.188C106.637 198.188 107.324 198.357 108.031 198.563ZM153.841 199.381C155.324 199.634 156.405 199.978 157.756 200.627C158.969 201.211 160.479 202.187 160.35 202.305C160.255 202.393 156.875 203.307 155.299 203.672C154.843 203.777 154.396 203.835 154.305 203.8C154.143 203.738 153.539 202.762 152.239 200.466C151.884 199.84 151.572 199.291 151.546 199.246C151.459 199.097 152.56 199.162 153.841 199.381ZM148.362 203.504C150.351 203.61 152.725 203.925 153.098 204.134C153.256 204.222 153.152 204.283 152.537 204.464C149.844 205.255 142.751 206.781 141.008 206.944L140.285 207.011L140.541 206.587C140.91 205.972 142.305 203.792 142.399 203.681C142.472 203.596 144.276 203.452 145.755 203.413C146.084 203.405 147.257 203.446 148.362 203.504Z" fill="#00718A"/>
<rect width="101" height="67" transform="translate(82 151)" fill="white"/>
</g>
</g>
<defs>
<clipPath id="clip0_411_216">
<rect width="256" height="256" fill="white"/>
</clipPath>
<clipPath id="clip1_411_216">
<rect width="391" height="242" fill="white" transform="translate(-49 208)"/>
</clipPath>
</defs>
</svg>
